<svg xmlns="http://www.w3.org/2000/svg" width="128" height="128" viewBox="0 0 128 128">
  <defs><linearGradient id="g" x1="0" y1="0" x2="0" y2="1"><stop offset="0" stop-color="#33d17a"/><stop offset="1" stop-color="#26a269"/></linearGradient></defs>
  <rect x="8" y="8" width="112" height="112" rx="24" fill="url(#g)"/>
  <g fill="none" stroke="#fff" stroke-width="8" stroke-linecap="round">
    <path d="M64 26v72"/><path d="M98 50c0 22-34 16-34 36"/>
  </g>
  <g fill="none" stroke="#fff" stroke-width="6" stroke-linecap="round">
    <path d="M30 52c0 18 34 12 34 30"/>
    <path d="M88 30c0 14-24 12-24 26"/>
    <path d="M40 32c0 14 24 12 24 26"/>
  </g>
  <g fill="#fff"><circle cx="64" cy="26" r="10"/><circle cx="64" cy="98" r="10"/><circle cx="98" cy="48" r="10"/>
    <circle cx="30" cy="52" r="7.5"/><circle cx="88" cy="30" r="7.5"/><circle cx="40" cy="32" r="7.5"/></g>
  <circle cx="98" cy="48" r="4.5" fill="#f6d32d"/>
  <circle cx="64" cy="26" r="4.5" fill="#3584e4"/>
  <circle cx="30" cy="52" r="3.4" fill="#e01b24"/>
  <circle cx="40" cy="32" r="3.4" fill="#ff7800"/>
  <circle cx="88" cy="30" r="3.4" fill="#9141ac"/>
</svg>
